<svg width="62" height="49" viewBox="0 0 62 49" fill="none" xmlns="http://www.w3.org/2000/svg">
<path d="M16.2639 17.9043C17.0168 17.1515 18.2275 17.1205 19.018 17.8338L30.939 28.5913C31.7882 29.3577 31.8229 30.6788 31.015 31.4886L15.6771 46.8641C14.8963 47.6468 13.6286 47.6475 12.8469 46.8658L1.4883 35.5072C0.707235 34.7262 0.707258 33.4598 1.48836 32.6787L16.2639 17.9043Z" fill="#721EFF"/>
<rect x="47.4648" y="1.41421" width="18.0328" height="38.0656" rx="1" transform="rotate(45 47.4648 1.41421)" stroke="url(#paint0_linear_6610_39)" stroke-width="2" stroke-linejoin="round"/>
<path d="M26.7511 7.41422C27.5322 6.63317 28.7985 6.63316 29.5796 7.41421L40.9161 18.7508C41.6972 19.5318 41.6972 20.7982 40.9161 21.5792L29.4693 33.026C28.6883 33.807 27.422 33.807 26.6409 33.026L15.3043 21.6894C14.5233 20.9084 14.5233 19.642 15.3043 18.861L26.7511 7.41422Z" fill="#721EFF"/>
<defs>
<linearGradient id="paint0_linear_6610_39" x1="66.9482" y1="0.525094" x2="48.0906" y2="40.6307" gradientUnits="userSpaceOnUse">
<stop stop-color="#15163D"/>
<stop offset="0.567708" stop-opacity="0.2"/>
<stop offset="0.791667" stop-opacity="0.12"/>
<stop offset="0.989583" stop-opacity="0.1"/>
</linearGradient>
</defs>
</svg>
